<svg width="100" height="100" viewBox="0 0 100 100" fill="none" xmlns="http://www.w3.org/2000/svg">
<rect width="100" height="100" rx="50" fill="#181818"/>
<path d="M63.2511 24.2197C63.5644 23.4803 64.2896 23 65.0926 23H73.9693C75.4045 23 76.3726 24.4669 75.8082 25.7865L62.42 57.0883C62.1051 57.8244 61.3817 58.3018 60.5811 58.3018H56.9658C56.1582 58.3018 55.4299 57.8161 55.1195 57.0706L52.5731 50.9558C52.3665 50.4598 52.3682 49.9014 52.5779 49.4066L63.2511 24.2197Z" fill="#51AFEF"/>
<path fill-rule="evenodd" clip-rule="evenodd" d="M33.9388 23.1043C34.7516 23.0982 35.4872 23.5846 35.7999 24.3348L52.0663 63.3596C52.3769 64.1047 53.1051 64.5901 53.9124 64.5901H56.5932C58.0017 64.5901 58.9689 66.0071 58.4557 67.3188L55.1653 75.7287C54.8653 76.4955 54.1261 77 53.3028 77H45.9366C45.1314 77 44.4047 76.5171 44.0928 75.7747L23.1564 25.9464C22.605 24.6343 23.562 23.1824 24.9852 23.1717L33.9388 23.1043Z" fill="white"/>
</svg>
